<?xml version="1.0" encoding="UTF-8"?>
<svg id="Layer_1" xmlns="http://www.w3.org/2000/svg" version="1.1" viewBox="0 0 1984.7 335.3">
  <!-- Generator: Adobe Illustrator 29.3.0, SVG Export Plug-In . SVG Version: 2.1.0 Build 146)  -->
  <defs>
    <style>
      .st0 {
        fill: #635bff;
      }

      .st1 {
        fill: #fff;
      }
    </style>
  </defs>
  <g>
    <path d="M1771.8,167.9c-6-3.6-13.1-1.9-17.6,4-1.9,2.4-2.6,5.5-2.9,12.6-.9,16,2.8,23.2,12.1,24.6,3.3.5,5.5,0,8.1-1.5,5.5-3.3,7.4-8.6,7.4-19.8s-1.9-16.7-7.2-19.8h.2Z"/>
    <path d="M1873.4,199.2c1.5-5.5,1.2-19.1-.5-24.1-.9-2.2-3.3-5.2-5.3-6.5-6.9-4.6-15.3-2.2-19.1,5.5-2.8,5.5-2.8,21.9,0,27.4,5.5,11.4,21.3,10,24.8-2.2h.2Z"/>
    <path class="st1" d="M1804.3,63.7l-7.1.9c-7.6.9-16.5,4.3-20.3,7.6-1.5,1.5-5.5,2.6-12.6,3.4-13.9,1.9-32.7,6.4-41,10-22.2,9.8-36.8,24.8-44.8,46-3.6,9.3-4,9.8-9.3,12.4-6.9,3.3-11.4,7.6-14.3,13.3-5,9.8-6.7,31.3-4,47.7,2.6,14.3,7.2,21.2,18.2,26.3,5.3,2.6,5.7,2.9,8.6,11.2,9.6,27.5,31,45.1,64.2,53,21.2,5.2,30.1,5.9,70.1,5.9s52-.9,73.3-6.2c32-8.1,53.4-26.3,62.5-53.4,2.4-7.2,2.9-7.9,8.3-10.3,6.9-3.3,11.4-7.4,14.5-13.3,5-9.8,6.7-31.3,4-47.7-2.6-14.3-7.2-21.2-18.2-26.3-5.3-2.6-5.7-2.9-8.6-11.2-11.4-32.7-39.2-51.3-85.7-57.2-7.6-.9-11.5-2.1-13.1-3.4-3.6-3.4-12.2-6.7-19.8-7.7-4-.5-7.2-1.2-7.4-1.5-.7-.7-2.9-14.5-2.9-17.9s.7-2.6,1.5-2.6c2.1,0,7.2-5.3,9.5-9.3,2.6-4.8,1.7-14.3-1.5-18.8-1.4-1.9-4.3-4.3-6.4-5.3-8.1-4-18.9-1.4-23.8,5.3-3.3,4.6-4.1,14.1-1.5,18.8,2.2,4.1,7.4,9.3,9.5,9.3s1.7,3.6,0,13.8l-1.2,7.4h-.7ZM1823.1,108.5c54.4,1,78.8,9.5,89.3,30.6,8.6,17.4,11,53.2,5.3,80.6-7.4,36.5-31.3,47.2-105,47.2s-107.8-14.8-107.8-79.2,7.9-57.8,27.2-67.7c12.1-6,33.1-10.2,60.1-11.7,4.1-.2,17.9-.2,30.8,0h0v.2h0Z"/>
  </g>
  <path class="st1" d="M37.6,279.5H8.8V106.6h32.3l57.7,134.4,57.7-134.4h32.3v172.9h-29.1v-116.8l-49.9,116.8h-22.2l-49.9-116.8v116.8h0,0Z"/>
  <path class="st1" d="M309.1,156h29.3l-71.9,172.9h-27.4l22-53.1-47.9-119.8h30.8l32.3,87.4,32.7-87.4h.1,0Z"/>
  <path class="st0" d="M385.4,232.1c1,4.8,2.9,8.9,5.7,12.5,2.8,3.5,6.7,6.4,11.5,8.6s10.5,3.3,17.2,3.3c10.4,0,18.1-2.4,23.1-7.3s7.5-10.6,7.5-17.2-1.6-10-4.6-13.6c-3.1-3.6-7.5-6.7-13.3-9.3s-12.3-5-19.4-7.3c-6.7-2-13.2-4.1-19.6-6.3s-12-5-16.9-8.4-8.8-7.7-11.6-13.1c-2.9-5.3-4.3-12.1-4.3-20.1s2.5-19.5,7.5-26.8,11.8-12.9,20.5-16.7,18.8-5.7,30.2-5.7,18.3,1.3,26,4c7.7,2.6,14.3,6.6,19.7,11.9,5.4,5.3,9.4,11.7,12,19.3l-26.6,8.9c-1-3.6-3-6.9-6-9.8-3-2.9-6.7-5.1-11-6.8-4.3-1.6-8.9-2.6-13.8-2.7-5.5-.2-10.5.6-14.8,2.3s-7.8,4.3-10.4,7.8-3.9,7.5-3.9,12.1,1.5,8.6,4.4,11.6,6.8,5.4,11.6,7.3c4.8,1.9,10.2,3.8,16.3,5.8,6.7,2,13.4,4.2,20.2,6.8,6.8,2.6,12.9,5.8,18.5,9.6,5.5,3.9,10.1,8.8,13.6,14.7s5.3,13.3,5.3,22.2-2.2,18.2-6.5,25.9-10.9,13.9-19.7,18.5c-8.8,4.6-19.6,6.9-32.5,6.9s-20.5-1.6-29.2-4.8c-8.7-3.2-15.9-7.8-21.6-13.8s-9.5-13.1-11.5-21.4l26.6-9.1-.2.2h0Z"/>
  <path class="st0" d="M565.5,281.2c-12.2,0-22.9-2.7-32.1-8.2-9.2-5.4-16.4-13-21.5-22.7-5.1-9.7-7.7-20.9-7.7-33.6s2.5-22.7,7.6-32.1c5-9.4,12.1-16.8,21-22.2,9-5.4,19.1-8.2,30.3-8.2s22,2.6,30.8,7.7c8.8,5.1,15.7,12.2,20.8,21.4,5,9.1,7.6,19.7,7.6,31.7s0,4.1-.4,6.3c-.2,2.2-.5,4.6-.9,7h-86.8c.6,5.9,2.4,11,5.3,15.1,2.8,4.1,6.5,7.3,10.9,9.6s9.5,3.5,15.4,3.5,12.7-1.4,18.2-4.3,9.2-6.5,11.4-11l24.2,8.2c-4.9,9.9-12.1,17.7-21.6,23.3s-20.3,8.5-32.4,8.5h0ZM591.7,205.7c0-5.1-1.3-9.7-3.9-13.8-2.6-4.1-6-7.4-10.3-9.8-4.2-2.4-9-3.6-14.2-3.6s-9.1,1.2-13.1,3.5-7.4,5.5-10.1,9.5c-2.8,4-4.6,8.8-5.6,14.2h57.2,0Z"/>
  <path class="st0" d="M724.5,279.5l-2.4-15.1c-3.9,5.3-8.6,9.3-13.9,12.1-5.4,2.8-12.5,4.2-21.5,4.2s-15.8-1.4-22-4.3-11-6.9-14.3-12.1-5-11.2-5-18.2c0-10.4,3.7-19.1,11.2-26.1s18.7-11.2,33.5-12.7l32-4v-9.4c0-4-1.7-7.5-5.1-10.7-3.4-3.2-8.9-4.8-16.4-4.8s-12.2,1.6-17,4.8-8,8-9.7,14.4l-24-8.9c3.1-10.9,9.2-19.3,18.5-25.4,9.2-6.1,20.4-9.1,33.6-9.1s27.7,4,35.7,12.1,12,18.4,12,30.9v82.3h-25.2,0ZM722,225.2l-29.3,4c-6.2.7-10.8,2.4-13.9,5.2-3.1,2.8-4.6,6.2-4.6,10.1s1.5,7,4.5,9.8c3,2.7,7.1,4.1,12.3,4.1s12.6-1.2,17.2-3.6c4.6-2.4,8.1-5.9,10.4-10.6,2.3-4.7,3.4-10.4,3.4-17.2v-1.8h0Z"/>
  <path class="st0" d="M786.1,156h24.9l2.2,15.6c3.3-4.1,7.1-7.6,11.5-10.4,4.4-2.8,9.2-4.7,14.3-5.7s10.3-.8,15.5.5v25.7c-4.4-1.5-8.9-1.9-13.6-1.1-4.6.7-9,2.5-13.2,5.3s-7.5,6.8-10.1,12.1-3.9,11.8-3.9,19.5v62h-27.6v-123.5h0Z"/>
  <path class="st0" d="M931.7,281.2c-11.9,0-22.3-2.7-31.2-8s-15.8-12.7-20.8-22.1-7.5-20.3-7.5-32.8,2.5-23.8,7.6-33.3c5-9.5,12.1-17,21.1-22.5s19.5-8.2,31.4-8.2,23.7,3,33.5,9,16.8,14.1,21,24.3l-25.2,8.4c-2.3-5.1-6-9.2-11-12.2-5.1-3-10.8-4.6-17.4-4.6s-12,1.6-16.9,4.8-8.6,7.7-11,13.5-3.7,12.6-3.7,20.5c0,11.9,2.8,21.2,8.6,28,5.7,6.8,13.5,10.2,23.5,10.2s12.1-1.4,17.2-4.3c5.1-2.9,9-6.9,11.6-12l24.7,8.4c-4.7,9.9-12.1,17.8-22,23.8s-21.2,9-33.7,9h.2q0,.1,0,.1Z"/>
  <path class="st0" d="M1016,101.7h27.6v65.7c3.9-4,8.7-7.1,14.4-9.5,5.7-2.4,12.1-3.6,19.3-3.6s16.9,2,24,6.1c7,4,12.4,10,16.1,17.8s5.6,17.6,5.6,29.3v72.1h-28.8v-68.4c0-10.4-2-18.2-6.1-23.5s-10.3-7.9-18.6-7.9-14.9,2.7-19.3,8c-4.4,5.4-6.6,13.3-6.6,23.8v67.9h-27.6V101.7h0Z"/>
  <path class="st0" d="M1161.5,279.5V106.6h75.3c12.1,0,22.2,2.1,30.3,6.2,8.1,4.1,14.3,9.6,18.5,16.4,4.2,6.8,6.2,14.4,6.2,22.6s-1.4,14-4.2,19.3c-2.8,5.3-6.5,9.5-11.2,12.6s-10,5.4-15.9,6.7v2c7,1,13.2,3,18.6,6.2,5.4,3.1,9.5,7.6,12.5,13.3,2.9,5.8,4.4,12.9,4.4,21.5s-2.2,16.6-6.7,23.6-10.9,12.5-19.2,16.5c-8.3,4-18.2,6.1-29.8,6.1h-78.8c0-.1,0-.1,0-.1ZM1262.4,155.5c0-7.7-2.5-13.7-7.5-18s-12-6.4-21.1-6.4h-43.5v48.9h43.7c9,0,15.9-2.1,20.9-6.4,5-4.3,7.5-10.3,7.5-18h0ZM1190.3,255.1h46.9c9.1,0,16.3-2.1,21.6-6.4,5.3-4.3,7.9-10.5,7.9-18.8s-2.8-14.8-8.4-19.3c-5.6-4.4-13-6.7-22.1-6.7h-45.9v51.2Z"/>
  <path class="st0" d="M1383.2,281.2c-11.9,0-22.4-2.6-31.6-7.8-9.2-5.2-16.4-12.5-21.6-22s-7.8-20.6-7.8-33.5,2.7-24.3,8.1-33.8,12.7-16.9,22.1-22.1c9.4-5.2,19.9-7.8,31.7-7.8s22.3,2.6,31.6,7.8c9.4,5.2,16.8,12.5,22.4,22,5.5,9.5,8.3,20.6,8.3,33.5s-2.8,24.3-8.4,33.8c-5.6,9.6-13.2,16.9-22.7,22.1s-20.2,7.8-31.9,7.8h-.2ZM1383,256.3c5.7,0,11.1-1.4,16.3-4.2,5.1-2.8,9.3-7,12.6-12.7,3.3-5.7,4.9-13,4.9-21.9s-1.5-15.7-4.6-21.4-7.2-9.9-12.2-12.7c-5.1-2.8-10.5-4.2-16.4-4.2s-11,1.4-15.9,4.2-8.8,7-11.6,12.7c-2.9,5.7-4.3,13-4.3,21.9s1.4,15.7,4.2,21.4c2.8,5.7,6.6,9.9,11.4,12.7s10.1,4.2,15.8,4.2h-.2Z"/>
  <path class="st0" d="M1481.2,156v-34.6h27.9v34.6h28.6v24.5h-28.6v54.8c0,7.4,1.4,12.6,4.2,15.6,2.8,3,6.4,4.5,10.9,4.7s9,0,13.6-.7v23.7c-7,1.5-13.9,1.9-20.7,1.4-6.8-.6-12.9-2.5-18.3-5.7-5.5-3.2-9.7-7.9-12.8-14.2-3.1-6.3-4.6-14.5-4.6-24.7v-54.8h-17.4v-24.5h17.4-.2q0-.1,0,0Z"/>
  <g>
    <path class="st1" d="M1570.1,281.2v-37.9h-14.2v-5.1h34v5.1h-14.2v37.9h-5.7Z"/>
    <path class="st1" d="M1595.7,281.2v-42.9h8.6l10.2,30.4c.9,2.8,1.6,5,2.1,6.4.5-1.6,1.2-3.9,2.3-6.9l10.3-29.9h7.6v42.9h-5.5v-35.9l-12.5,35.9h-5.1l-12.4-36.6v36.6h-5.5Z"/>
  </g>
</svg>