<?xml version="1.0" encoding="UTF-8"?>
<svg id="Layer_1" xmlns="http://www.w3.org/2000/svg" version="1.1" viewBox="0 0 1634.4 532">
  <!-- Generator: Adobe Illustrator 29.3.0, SVG Export Plug-In . SVG Version: 2.1.0 Build 146)  -->
  <defs>
    <style>
      .st0 {
        fill: #635bff;
      }

      .st1 {
        fill: #fff;
      }
    </style>
  </defs>
  <g>
    <path class="st1" d="M1439.6,8c46.7,11.8,81.2,38.6,101.2,81.7,22.2,47.8,19.4,95.1-7.9,140.6-2.2,3.7-4.6,7.4-6.8,11.1,2.5,3.6,6.2,4.8,9.2,6.9,32.2,23,61.9,48.8,88.8,77.8,10.5,11.3,10.5,28.5.2,38.9-11,11.2-28.2,11.9-39.8.8-21-20.1-40-42.2-59.4-63.9-8.1-9-15.9-18.3-23.5-27.8-3.1-3.9-5.5-3.7-9.3-1-20.6,14.9-43.8,23.9-69,26.1-46.3,4.2-87-8.7-120.7-41.7-24.4-23.9-39.1-53-42.8-86.5-8.7-78.7,38.1-142.8,109.9-161.8,22.9-6,46-6.2,69.8-1.3M1290.8,150.5c-.3,8.2.1,16.3,1.8,24.3,12.1,58.6,68.1,102.4,132.4,92.4,70.2-10.9,115.3-83.6,92.9-150.8-19.2-57.6-78.6-90.7-137.5-76.7-52.3,12.4-89.3,57.7-89.5,110.9h0Z"/>
    <g>
      <path d="M1386.9,148.1c-3-1.7-6.5-1-8.7,2-.9,1.2-1.2,2.7-1.4,6.2-.4,7.9,1.4,11.5,6,12.1,1.6.2,2.8,0,4-.7,2.7-1.6,3.7-4.2,3.7-9.8s-1-8.2-3.5-9.7h0Z"/>
      <path d="M1437,163.5c.8-2.8.6-9.5-.2-11.9-.4-1.1-1.6-2.5-2.6-3.3-3.4-2.3-7.5-1.1-9.4,2.7-1.4,2.8-1.4,10.8,0,13.5,2.8,5.6,10.5,4.9,12.2-1.1h0Z"/>
      <path class="st1" d="M1402.9,96.7l-3.5.4c-3.7.4-8.2,2.1-10,3.8-.8.7-2.8,1.3-6.2,1.7-6.9.9-16.1,3.2-20.2,5-11,4.8-18.2,12.2-22.1,22.7-1.7,4.6-1.9,4.8-4.6,6.1-3.4,1.6-5.6,3.7-7,6.5-2.5,4.8-3.3,15.4-1.9,23.5,1.3,7,3.6,10.4,9,13,2.6,1.2,2.8,1.5,4.2,5.5,4.8,13.6,15.3,22.2,31.7,26.1,10.4,2.5,14.9,2.9,34.6,2.9s25.6-.5,36.2-3.1c15.8-4,26.3-13,30.8-26.3,1.2-3.6,1.4-3.9,4.1-5.1,3.4-1.6,5.6-3.7,7.1-6.5,2.5-4.8,3.3-15.4,1.9-23.5-1.3-7-3.6-10.4-9-13-2.6-1.2-2.8-1.5-4.2-5.5-5.6-16.1-19.4-25.3-42.3-28.2-3.7-.5-5.7-1-6.5-1.7-1.8-1.7-6-3.3-9.8-3.8-1.9-.3-3.5-.6-3.7-.7-.3-.3-1.5-7.2-1.5-8.8s.3-1.2.7-1.2c1,0,3.6-2.6,4.7-4.6,1.2-2.4.8-7-.8-9.3-.7-1-2.1-2.1-3.2-2.6-4-1.9-9.3-.7-11.7,2.6-1.6,2.3-2,6.9-.8,9.3,1.1,2,3.7,4.6,4.7,4.6s.8,1.7,0,6.8l-.6,3.7h0s0,0,0,0h0ZM1412.2,118.8c26.8.5,38.9,4.7,44.1,15.1,4.2,8.6,5.4,26.2,2.6,39.7-3.7,18-15.5,23.3-51.8,23.3s-53.2-7.3-53.2-39c0-19,3.9-28.5,13.4-33.3,5.9-3,16.3-5,29.6-5.7,2-.1,8.8-.1,15.2,0h0,0Z"/>
    </g>
  </g>
  <g>
    <path class="st1" d="M31.2,478.1H2.4v-172.9h32.3l57.7,134.4,57.7-134.4h32.3v172.9h-29.1v-116.8l-49.9,116.8h-22.2l-49.9-116.8v116.8h0Z"/>
    <path class="st1" d="M302.8,354.6h29.3l-71.9,172.9h-27.4l22-53.1-47.9-119.8h30.8l32.3,87.4,32.8-87.4h0Z"/>
    <path class="st0" d="M379,430.7c1,4.8,2.9,8.9,5.7,12.5,2.8,3.5,6.7,6.4,11.5,8.6,4.8,2.2,10.5,3.3,17.2,3.3,10.4,0,18.1-2.4,23.1-7.3,5-4.9,7.5-10.6,7.5-17.2s-1.6-10-4.6-13.6c-3.1-3.6-7.5-6.7-13.3-9.3-5.8-2.6-12.3-5-19.4-7.3-6.7-2-13.2-4.1-19.6-6.3s-12-5-16.9-8.4c-4.9-3.4-8.8-7.7-11.6-13.1-2.9-5.4-4.3-12.1-4.3-20.1s2.5-19.5,7.5-26.8c5-7.3,11.8-12.9,20.5-16.7,8.7-3.8,18.8-5.7,30.2-5.7s18.3,1.3,26,4c7.7,2.6,14.3,6.6,19.7,11.9,5.4,5.3,9.4,11.7,12,19.3l-26.6,8.9c-1-3.6-3-6.9-6-9.8-3-2.9-6.7-5.1-11-6.8-4.3-1.6-8.9-2.6-13.8-2.7-5.5-.2-10.5.6-14.8,2.3-4.3,1.7-7.8,4.3-10.4,7.8-2.6,3.5-3.9,7.5-3.9,12.1s1.5,8.6,4.4,11.6c2.9,3,6.8,5.4,11.6,7.3,4.8,1.9,10.2,3.8,16.3,5.8,6.7,2,13.4,4.2,20.2,6.8,6.8,2.6,12.9,5.8,18.5,9.6,5.5,3.9,10.1,8.8,13.6,14.7,3.5,5.9,5.3,13.3,5.3,22.2s-2.2,18.2-6.5,25.9c-4.3,7.7-10.9,13.9-19.7,18.5-8.8,4.6-19.6,6.9-32.5,6.9s-20.5-1.6-29.2-4.8c-8.7-3.2-15.9-7.8-21.6-13.8-5.7-6-9.5-13.1-11.5-21.4l26.6-9.1h0Z"/>
    <path class="st0" d="M559.2,479.8c-12.2,0-22.9-2.7-32.1-8.1-9.2-5.4-16.4-13-21.5-22.7-5.1-9.7-7.7-20.9-7.7-33.6s2.5-22.7,7.6-32.1c5-9.4,12.1-16.8,21-22.2,9-5.4,19.1-8.1,30.3-8.1s22,2.6,30.8,7.7c8.8,5.1,15.7,12.2,20.8,21.4,5,9.1,7.6,19.7,7.6,31.7s-.1,4.1-.4,6.3c-.2,2.2-.5,4.6-.9,7h-86.8c.6,5.9,2.4,11,5.3,15.1,2.8,4.1,6.5,7.3,10.9,9.6,4.4,2.3,9.5,3.5,15.4,3.5s12.7-1.4,18.2-4.3c5.5-2.9,9.2-6.5,11.4-11l24.2,8.1c-4.9,9.9-12.1,17.7-21.6,23.3s-20.3,8.5-32.4,8.5h0ZM585.3,404.3c0-5.1-1.3-9.7-3.9-13.8-2.6-4.1-6-7.4-10.3-9.8-4.2-2.4-9-3.6-14.2-3.6s-9.1,1.2-13.1,3.5c-4,2.3-7.4,5.5-10.1,9.5-2.8,4-4.6,8.8-5.6,14.2h57.2,0Z"/>
    <path class="st0" d="M718.1,478.1l-2.4-15.1c-3.9,5.3-8.6,9.3-13.9,12.1-5.4,2.8-12.5,4.2-21.5,4.2s-15.8-1.4-22-4.3c-6.2-2.9-11-6.9-14.3-12.1-3.3-5.2-5-11.2-5-18.2,0-10.4,3.7-19.1,11.2-26.1,7.5-7,18.7-11.2,33.5-12.7l32-4v-9.4c0-4-1.7-7.5-5.1-10.7-3.4-3.2-8.9-4.8-16.4-4.8s-12.2,1.6-17,4.8c-4.8,3.2-8,8-9.7,14.4l-24-8.9c3.1-10.9,9.2-19.3,18.5-25.4,9.2-6.1,20.4-9.1,33.6-9.1s27.7,4,35.7,12.1c8,8.1,12,18.4,12,30.9v82.3h-25.2ZM715.6,423.8l-29.3,4c-6.2.7-10.8,2.4-13.9,5.2-3.1,2.8-4.6,6.2-4.6,10.1s1.5,7,4.5,9.8c3,2.7,7.1,4.1,12.3,4.1s12.6-1.2,17.2-3.6c4.6-2.4,8.1-5.9,10.4-10.6,2.3-4.7,3.4-10.4,3.4-17.2v-1.7h0Z"/>
    <path class="st0" d="M779.7,354.6h24.9l2.2,15.6c3.3-4.1,7.1-7.6,11.5-10.4,4.4-2.8,9.2-4.7,14.3-5.7,5.1-1,10.3-.8,15.5.5v25.7c-4.4-1.5-8.9-1.9-13.6-1.1-4.6.7-9,2.5-13.2,5.3-4.2,2.8-7.5,6.8-10.1,12.1-2.6,5.3-3.9,11.8-3.9,19.5v62h-27.6v-123.5h0Z"/>
    <path class="st0" d="M925.4,479.8c-11.9,0-22.3-2.7-31.2-8-8.9-5.4-15.8-12.7-20.8-22.1-5-9.4-7.5-20.3-7.5-32.9s2.5-23.8,7.6-33.3c5-9.5,12.1-17,21.1-22.5s19.5-8.1,31.4-8.1,23.7,3,33.5,9c9.8,6,16.8,14.1,21,24.3l-25.2,8.4c-2.3-5.1-6-9.2-11-12.2-5.1-3-10.8-4.6-17.4-4.6s-12,1.6-16.9,4.8c-4.9,3.2-8.6,7.7-11,13.5-2.4,5.8-3.7,12.6-3.7,20.5,0,11.9,2.8,21.2,8.6,28,5.7,6.8,13.5,10.2,23.5,10.2s12.1-1.4,17.2-4.3c5.1-2.9,9-6.9,11.6-12l24.7,8.4c-4.7,9.9-12.1,17.8-22,23.8-9.9,6-21.2,9-33.7,9h0Z"/>
    <path class="st0" d="M1009.6,300.3h27.6v65.7c3.9-4,8.7-7.1,14.4-9.5,5.7-2.4,12.1-3.6,19.3-3.6s16.9,2,24,6.1c7,4,12.4,10,16.1,17.8,3.7,7.8,5.6,17.6,5.6,29.3v72.1h-28.8v-68.4c0-10.4-2-18.2-6.1-23.5-4.1-5.3-10.3-7.9-18.6-7.9s-14.9,2.7-19.3,8c-4.4,5.4-6.6,13.3-6.6,23.8v67.9h-27.6v-177.8h0Z"/>
    <path class="st0" d="M1155.1,478.1v-172.9h75.3c12.1,0,22.2,2.1,30.3,6.2,8.1,4.1,14.3,9.6,18.5,16.4,4.2,6.8,6.2,14.4,6.2,22.6s-1.4,14-4.2,19.3c-2.8,5.3-6.5,9.5-11.2,12.6-4.7,3.1-10,5.4-15.9,6.7v2c7,1,13.2,3,18.6,6.2,5.4,3.1,9.5,7.6,12.5,13.3,2.9,5.8,4.4,12.9,4.4,21.5s-2.2,16.6-6.7,23.6c-4.5,7-10.9,12.5-19.2,16.5-8.3,4-18.2,6.1-29.8,6.1h-78.7s0,0,0,0ZM1256.1,354.1c0-7.7-2.5-13.7-7.5-18-5-4.3-12-6.4-21.1-6.4h-43.5v48.9h43.7c9,0,15.9-2.1,20.9-6.4,5-4.3,7.5-10.3,7.5-18ZM1184,453.7h46.9c9.1,0,16.3-2.1,21.6-6.4,5.3-4.3,7.9-10.5,7.9-18.8s-2.8-14.8-8.4-19.3c-5.6-4.4-13-6.7-22.1-6.7h-45.9v51.1Z"/>
    <path class="st0" d="M1376.9,479.8c-11.9,0-22.4-2.6-31.6-7.8-9.2-5.2-16.4-12.5-21.6-22-5.2-9.5-7.8-20.6-7.8-33.5s2.7-24.3,8.1-33.8c5.4-9.5,12.7-16.9,22.1-22.1,9.4-5.2,19.9-7.8,31.7-7.8s22.3,2.6,31.6,7.8c9.4,5.2,16.8,12.5,22.4,22,5.5,9.5,8.3,20.6,8.3,33.5s-2.8,24.3-8.4,33.8c-5.6,9.6-13.2,16.9-22.7,22.1-9.5,5.2-20.2,7.8-31.9,7.8h0,0ZM1376.6,454.9c5.7,0,11.1-1.4,16.3-4.2,5.1-2.8,9.3-7,12.6-12.7,3.3-5.7,4.9-13,4.9-21.9s-1.6-15.7-4.6-21.4c-3.1-5.7-7.2-9.9-12.2-12.7-5.1-2.8-10.5-4.2-16.4-4.2s-11,1.4-15.9,4.2c-4.9,2.8-8.8,7-11.6,12.7-2.9,5.7-4.3,13-4.3,21.9s1.4,15.7,4.2,21.4c2.8,5.7,6.6,9.9,11.4,12.7,4.8,2.8,10.1,4.2,15.8,4.2Z"/>
    <path class="st0" d="M1474.8,354.6v-34.6h27.9v34.6h28.6v24.5h-28.6v54.8c0,7.4,1.4,12.6,4.2,15.6,2.8,3,6.4,4.5,10.9,4.7,4.5.2,9,0,13.6-.7v23.7c-7,1.5-13.9,1.9-20.7,1.4-6.8-.6-12.9-2.5-18.3-5.7-5.5-3.2-9.7-7.9-12.8-14.2-3.1-6.3-4.6-14.5-4.6-24.7v-54.8h-17.4v-24.5h17.4Z"/>
  </g>
  <g>
    <path class="st1" d="M1564.3,478.1v-34.5h-12.9v-4.6h31v4.6h-12.9v34.5h-5.2Z"/>
    <path class="st1" d="M1587.6,478.1v-39.1h7.8l9.3,27.7c.9,2.6,1.5,4.5,1.9,5.8.4-1.4,1.1-3.5,2.1-6.3l9.4-27.2h7v39.1h-5v-32.8l-11.4,32.8h-4.7l-11.3-33.3v33.3h-5Z"/>
  </g>
</svg>